<?xml version="1.0" encoding="utf-8"?>
<!-- Generator: Adobe Illustrator 23.1.0, SVG Export Plug-In . SVG Version: 6.00 Build 0)  -->
<svg version="1.1" id="Calque_1" xmlns="http://www.w3.org/2000/svg" xmlns:xlink="http://www.w3.org/1999/xlink" x="0px" y="0px"
	 viewBox="0 0 1608 1609" style="enable-background:new 0 0 1608 1609;" xml:space="preserve">
<style type="text/css">
	.st0{fill:#0FEFD4;}
	.st1{fill:#FFFFFF;}
	.st2{fill:#71CFEB;}
	.st3{fill:#BB7457;}
	.st4{fill:#424242;}
	.st5{fill:#535D66;}
	.st6{fill:#3C464F;}
	.st7{fill-opacity:0.1529;}
	.st8{fill:#020202;}
	.st9{fill:#F9F9F9;}
	.st10{font-family:'Sylfaen';}
	.st11{font-size:64.0809px;}
	.st12{letter-spacing:2.1;}
	.st13{fill-rule:evenodd;clip-rule:evenodd;fill:#1ADAD0;stroke:#C1BFBF;stroke-miterlimit:22.9256;}
	.st14{fill-rule:evenodd;clip-rule:evenodd;fill:#00B8AF;}
	.st15{fill-rule:evenodd;clip-rule:evenodd;fill:#F9F9F9;}
	.st16{fill-rule:evenodd;clip-rule:evenodd;fill:none;stroke:#C1C1C1;stroke-miterlimit:22.9256;}
	.st17{fill:#F9F4F4;}
	.st18{font-family:'CopperplateGothic-Bold';}
	.st19{font-size:32.0107px;}
	.st20{font-size:18.8298px;}
	.st21{fill:#F9F7F7;}
</style>
<g id="layer1">
	<g>
		<path class="st0" d="M2.4,282c-0.5,0-1,0.1-1.4,0.4c-0.4,0.3-0.6,0.6-0.6,1l0,1131.7c0,0.8,0.9,1.4,1.9,1.4l1603.2,0
			c0.5,0,1-0.1,1.4-0.4c0.4-0.3,0.6-0.6,0.6-1l0-1131.7c0-0.8-0.9-1.4-1.9-1.4L2.4,282z"/>
	</g>
	<g>
		<path d="M509.4,862.9l22.1-108.4c3.6-72,11.7-127.2,24.4-165.4c10.6-33.1,28-61,52-83.7c3.4-4.6,16.4-14.4,39-29.4
			c18.9-11.1,38.6-19.3,59.1-24.8c38.5-10.3,78.3-9.7,119.5,1.8c29,8.6,53.3,20.5,72.9,35.9c10.5,8.1,18.8,17.7,24.9,28.6
			c6.9,14.8,10.6,24.5,10.9,29c10.9,38.1,8.5,148.3-7.4,330.8L509.4,862.9"/>
	</g>
	<g>
		<path class="st1" d="M610.8,750.9l-28.6,54.9c-66.5,9.2-114.7,24.7-144.9,46.6c-36.2,25.4-61.5,63.3-76,113.5
			c-6.3,39.2-1.5,68.5,14.3,88c10,21.2,44.6,55.3,103.7,102.1c11.9,48.4,14.5,88.5,7.8,120.4l544.3,0c-1.7-14,0.1-52.9,5.6-116.9
			c26.8-58.2,39.1-93.8,36.8-106.6c1.1,0,5.6,5.5,13.4,16.6c4,5.2,19,27.7,45.2,67.5c-32.2,47.5-61.9,93.9-88.9,139.3l155.6,0
			c18.4-35.3,41.3-70.2,68.7-104.5c17.6-32.7,14.5-66.8-9.4-102.3c-65.7-94.2-127.6-162.2-185.6-203.9
			c-45.3-29.4-113.5-55-204.7-76.9L610.8,750.9z"/>
	</g>
	<g>
		<path class="st2" d="M931.3,1214.4L698.4,824.5l-80.2-64.3l16.5-24.2l196.7,7.2l23.6,24.2l9.8,87.1
			c34.4,103.4,54.8,174.5,61.2,213.4C934.4,1109,936.1,1157.8,931.3,1214.4"/>
	</g>
	<g>
		<path class="st3" d="M729.8,804.1l123.4,173.6l-20.1-209.9c29.9-23.6,47.8-40.4,53.8-50.3c10.8-14.3,17.1-30.4,18.8-48.3
			c0-8.3-0.7-14.9-1.9-19.8c-1.9-9.3-5-20.2-9.2-32.7c-16.8-50.4-28-78-33.6-82.8c-22.1-29.2-62.6-41.7-121.5-37.4
			c-41.6,3.8-72.2,24.8-91.7,63.2c-15.5,34.6-23,67.1-22.3,97.3c-0.9,29,8.8,53.7,29.2,73.9l-9.6,23.9L729.8,804.1"/>
	</g>
	<g>
		<path class="st4" d="M1002.4,919.5L1002.4,919.5L1002.4,919.5L1002.4,919.5"/>
	</g>
	<g>
		<path class="st3" d="M540.4,976.5l-2.4-4.7c-11.4-20.4-16.8-36.5-16.1-48.2c1.2-13,7.1-19.3,17.7-18.9
			c9.2,2.2,18.9,10.9,29.1,26.1c10.8,15.7,19.7,32.9,26.8,51.7c6.8,18.5,8.7,33.3,5.6,44.5c-3.4,13.1-13.9,25.1-31.4,36
			c-4.8,8.3-7.6,14.7-8.3,19c-1.1,7.4-1.3,12-0.6,14.1c2.7,12.9,7.2,23.6,13.5,32.2c3,5.1,14.8,21.8,35.4,49.9
			c3.7,5.3,6.9,10.3,9.5,14.9c5.4,9.5,7.1,16.2,4.8,20c-3.5,5.4-12.9,6.3-28.2,3c-20.6-5.4-38.2-13.2-53-23.4
			c-7.6-4.7-17.7-13.5-30.1-26.3c-19.5-23.3-34.8-40.6-46-51.9c-3.9-4.8-5.9-7.6-6-8.4c-1.8-4.5-2.5-7.2-2.1-8.2
			c0.1-1.9,0.4-3.7,1.1-5.7c-0.2-0.8,3.5-7.9,11.1-21.3c2.2-5.2,3.2-8.3,3-9.4c0.4-1,0.2-4.1-0.7-9.3l-4.7-15.4
			c-0.5-2.1-0.9-4.1-1.1-6.2c-0.4-4.2,0.6-8.4,3-12.6c4.1-8.1,13.4-16.1,28-23.7c5.1-2.3,9.9-3.9,14.5-4.8
			c3.4-0.9,10.9-1.7,22.5-2.5c1.1,0,2.6-0.5,4.4-1.3C542,984.7,542.3,981.6,540.4,976.5"/>
	</g>
	<g>
		<path d="M580.9,789.7L580.9,789.7l32,34.9c1,1.1,1.1,2.4,0.4,3.6c-0.7,1.2-2.2,2-4,2.2l0,0c-20.4,2.4-32.1,4.5-33.1,9.9l0,0
			c-1.3,7.1,11.3,21,26.7,37.5c1.6,1.8,1,4.1-1.5,5.3c-2.5,1.2-5.8,0.7-7.5-1.1l0,0c-13.8-14.8-30.4-32-28.4-42.7l0,0
			c2.3-12.4,26.5-14.5,42-16.4l-3.6,5.8l-32-34.9c-1.6-1.8-0.9-4.1,1.6-5.3C576,787.5,579.3,788,580.9,789.7z"/>
	</g>
	<g>
		<path d="M611.6,827.2L611.6,827.2L611.6,827.2l-4.4-3.7c18.8,2.4,39.3,4.9,54.2,12.9l0,0c14.9,8,23.6,21.2,31.6,33.3
			c1.3,1.9,0.1,4.2-2.6,5.1c-2.7,0.9-5.9,0.1-7.2-1.8l0,0c-8.3-12.5-16-23.8-28.3-30.4l0,0c-12.4-6.7-30.1-9-49.6-11.5
			c-2.6-0.3-4.4-1.9-4.4-3.7l0,0v0c0-2.1,2.4-3.8,5.4-3.8S611.6,825.1,611.6,827.2z"/>
	</g>
	<g>
		<path d="M877.6,790.9L877.6,790.9L877.6,790.9l-0.3-1.3l98.9,197.6c1,2-0.5,4.1-3.3,4.8c-2.8,0.7-5.9-0.3-6.9-2.3l0,0l-98.9-197.6
			c-0.2-0.4-0.3-0.8-0.3-1.3l0,0v0c0-2.1,2.4-3.8,5.4-3.8S877.6,788.8,877.6,790.9z"/>
	</g>
	<g>
		<path class="st5" d="M695.1,875.3L695.1,875.3L695.1,875.3l-0.2-0.8l0,0.1v0c13.8,26.9,28.4,54.9,21.5,73.4l0,0
			c-7.1,18.9-36,27.4-62.8,35.5c-1.5,0.4-3.2,0-3.8-1.1c-0.6-1,0.1-2.2,1.5-2.7l0,0c27.7-8.4,53.3-16.2,59.5-32.8l0,0
			c6.3-16.9-7.1-43.4-21.3-70.9l0,0l0-0.1c-0.1-0.3-0.2-0.6-0.2-0.8l0,0v0c0.1-1.1,1.5-2,3.1-1.9C694,873.2,695.2,874.2,695.1,875.3
			z"/>
	</g>
	<g>
		<path class="st5" d="M598.3,877.6L598.3,877.6L598.3,877.6l-0.7-1.5c43.8,35.6,87.3,71,115,86.9l0,0c14.9,8.6,24.8,11.3,32.3,11.7
			l0,0c6.4,0.3,11.4-1,16.9-2.5c1.5-0.4,3.2,0.1,3.7,1.2c0.6,1.1-0.2,2.2-1.7,2.6l0,0c-5.5,1.5-11.6,3.2-19.4,2.8l0,0
			c-9.2-0.5-20.2-3.8-35.5-12.6l0,0c-28.2-16.3-72.1-52-115.7-87.4c-0.5-0.4-0.8-0.9-0.7-1.5l0,0v0c0.1-1.1,1.5-2,3.1-1.9
			C597.2,875.5,598.4,876.4,598.3,877.6z"/>
	</g>
	<g>
		<path d="M659.7,981.9l-0.2,1.1c-0.7,2.1-2.3,3.8-4.8,4.9c-2.5,1.2-5.3,1.5-8.5,1.1c-3-0.5-5.3-1.6-7-3.4c-1.7-1.8-2.2-3.8-1.6-6
			c0.7-2.1,2.3-3.8,4.8-4.9c2.5-1.2,5.3-1.5,8.5-1.1c3,0.5,5.3,1.6,7,3.4c0.5,0.6,1,1.2,1.3,1.8l0.4,1
			C659.7,980.4,659.8,981.1,659.7,981.9"/>
	</g>
	<g>
		<path d="M777.7,972.6l-0.2,1.1c-0.2,0.5-0.4,0.9-0.6,1.3c-0.1,0.2-0.5,0.8-1.4,1.8c-0.8,0.7-1.7,1.3-2.8,1.8
			c-1.4,0.6-2.3,0.9-2.6,0.9c-0.6,0.1-1.2,0.2-1.9,0.3c-1.3,0.1-2.6,0.1-4-0.1c-0.7-0.1-1.3-0.3-1.9-0.4c-0.3,0-1.2-0.4-2.5-1
			c-1-0.5-1.9-1.2-2.6-2c-1.5-1.6-2.1-3.3-1.8-5.3c0.2-1,0.6-1.9,1.2-2.7c0.8-1,1.3-1.5,1.6-1.6c0.4-0.3,0.9-0.6,1.4-0.9
			c0.2-0.2,1.1-0.5,2.5-1.1c0.6-0.2,1.2-0.3,1.8-0.4c1.2-0.2,2.6-0.3,3.9-0.2c1.4,0.1,2.7,0.4,3.8,0.8l0.8,0.3
			c0.5,0.2,1,0.5,1.5,0.8c0.5,0.3,0.9,0.6,1.3,1c0.8,0.7,1.4,1.5,1.8,2.4C777.6,970.4,777.8,971.4,777.7,972.6"/>
	</g>
	<g>
		<path class="st6" d="M1010.2,1007.3l-1.5,2.9c-3.8,5.7-9.7,9.6-17.7,11.8c-8,2.2-16.3,2-24.8-0.5c-8-2.7-13.6-6.9-16.7-12.5
			c-1-1.8-1.7-3.7-2-5.7l-0.2-3c0-2,0.5-4,1.3-6c2.8-6.1,7.9-10.6,15.4-13.5c7.5-2.9,15.6-3.5,24.4-1.8c8.7,2,15,5.6,19.1,10.9
			C1011.7,995.4,1012.6,1001.1,1010.2,1007.3"/>
	</g>
	<g>
		<path d="M1001.9,1006.9l-1.1,2.1c-2.7,4.1-7,6.9-12.7,8.5c-5.7,1.6-11.7,1.5-17.8-0.3c-5.7-1.9-9.7-4.9-12-8.9
			c-0.7-1.3-1.2-2.6-1.4-4.1l-0.1-2.1c0-1.4,0.3-2.9,0.9-4.3c2-4.4,5.7-7.6,11.1-9.7s11.2-2.5,17.5-1.3c6.2,1.4,10.8,4,13.7,7.8
			C1003,998.3,1003.6,1002.4,1001.9,1006.9"/>
	</g>
	<g>
		<path class="st1" d="M719.4,708.2l5,2.7c15.1,8.1,26.6,13.5,34.7,16.2c3.2,1.2,6.4,2.1,9.5,2.9l4.7,1c3.3,0.6,6.2,0.9,8.6,1l4.8,0
			l4.7-0.4l4.6-0.8c3.1-0.7,6.1-1.5,9.1-2.6c7.5-2.6,17.6-7.7,30.4-15.5L719.4,708.2"/>
	</g>
	<g>
		<path class="st7" d="M751.9,673.8l23.1,10.9l23.1,10.9c13.6-6.9,27.2-13.7,40.8-20.6c-13,3.3-26.1,6.6-39.1,9.9
			C783.8,681.2,767.8,677.5,751.9,673.8"/>
	</g>
	<g>
		<path class="st7" d="M652.5,730.5l6.7,5.1c15.6,11.8,26.6,19.9,33.2,24.2c10.9,7.1,17.4,11.2,19.5,12.2
			c11.8,7.1,25.4,12.3,40.8,15.5c30.9,5.2,57.2-0.9,79-18.2l-48.3,71.7L652.5,730.5"/>
	</g>
	<g>
		<path class="st1" d="M696.6,618.9l2.4-0.3c7.1-1,12.6-1.7,16.4-1.8c1.5-0.1,3-0.1,4.5-0.1l2.2,0c1.9,0.1,3.6,0.2,5,0.3
			c1.6,0.2,3.2,0.4,4.7,0.8l2.3,0.5c1.5,0.4,3,0.8,4.5,1.3c3.7,1.2,8.8,3.2,15.2,6c-4.7,0.5-8.1,0.9-10.2,1
			c-3.4,0.2-5.5,0.4-6.1,0.4c-4.3,0.1-8.2,0-11.8-0.4c-1.6-0.2-3.2-0.4-4.8-0.7c-0.8-0.1-3.2-0.6-7.2-1.6
			C709.6,623.1,703.9,621.3,696.6,618.9"/>
	</g>
	<g>
		<path d="M736,622.7l-0.2,0.7c-0.7,1.5-2.1,2.5-4.2,3.2c-2.1,0.7-4.5,0.8-7.1,0.4c-2.5-0.5-4.3-1.4-5.6-2.7
			c-0.4-0.4-0.7-0.9-0.9-1.3l-0.3-0.7c-0.1-0.5-0.1-1,0-1.5c0.4-1.5,1.5-2.7,3.5-3.6s4.2-1.2,6.8-0.9c2.6,0.3,4.6,1.1,6.2,2.3
			C735.7,619.8,736.3,621.2,736,622.7"/>
	</g>
	<g>
		<path d="M688.1,581.9L688.1,581.9c11.9-0.1,20.8,0,26.8,0.2c2.4,0.1,4.8,0.2,7.1,0.4l3.4,0.3c2.2,0.2,4.3,0.5,6.4,0.8
			c2.2,0.3,4.1,0.7,5.9,1.1c1,0.2,3.6,0.8,7.7,2c4.1,1.3,9.3,3.3,15.6,6.1L688.1,581.9"/>
	</g>
	<g>
		<path d="M751.9,563.5L751.9,563.5L751.9,563.5L751.9,563.5"/>
	</g>
	<g>
		<path class="st1" d="M884,630.8l-2.1-0.8c-6.4-2.4-11.4-4.1-15-5c-1.4-0.4-2.9-0.7-4.3-1l-2.2-0.4c-1.8-0.3-3.5-0.5-4.9-0.7
			c-1.6-0.1-3.2-0.2-4.8-0.2l-2.4,0c-1.6,0.1-3.2,0.2-4.8,0.3c-4,0.4-9.7,1.3-17,2.7c4.3,1.4,7.5,2.5,9.4,3c3.2,0.9,5.1,1.4,5.7,1.6
			c4.1,1,7.9,1.6,11.5,2c1.6,0.1,3.2,0.2,4.9,0.3c0.8,0.1,3.3,0,7.6-0.1C869.9,632.2,876,631.7,884,630.8"/>
	</g>
	<g>
		<path d="M844.7,626.6l-0.1,0.7c0.1,1.5,1,2.8,2.7,3.9c1.8,1.1,4,1.7,6.6,1.8c2.6,0,4.7-0.5,6.4-1.5c0.6-0.3,1-0.7,1.4-1.1l0.5-0.6
			c0.3-0.4,0.5-0.9,0.6-1.4c0.3-1.6-0.4-2.9-1.9-4.1s-3.6-2-6.2-2.3c-2.6-0.2-4.9,0.1-6.8,0.9S845,625.1,844.7,626.6"/>
	</g>
	<g>
		<path d="M906.9,597L906.9,597c-11.3-2.5-19.9-4.2-25.8-5.1c-2.4-0.4-4.7-0.7-6.9-1l-3.3-0.4c-2.2-0.2-4.3-0.4-6.4-0.5
			c-2.2-0.1-4.2-0.2-6.1-0.1c-1-0.1-3.8,0.1-8.2,0.4c-4.4,0.4-10.2,1.3-17.4,2.7L906.9,597"/>
	</g>
	<g>
		<path d="M965.3,694.4L965.3,694.4L965.3,694.4L965.3,694.4"/>
	</g>
	<g>
		<path class="st8" d="M190,1276.5l619.8,0l525.7,0c52,0,94.1,29.7,94.1,66.4v5.2c0,36.7-42.1,66.4-94.1,66.4
			c-350.5,0-701,0-1051.5,0c-52,0-94.1-29.7-94.1-66.4V1276.5"/>
	</g>
	<text transform="matrix(1.4158 0 0 1 324.1318 1345.5746)"><tspan x="0" y="0" class="st9 st10 st11 st12">WELCOM BIENVENUE</tspan><tspan x="0" y="58.4" class="st9 st10 st11 st12">      CHEZ VOUS</tspan></text>
</g>
<path class="st13" d="M159.5,325.6h136.6c52,0,94.6,52.9,94.6,117.5v169.8c0,64.6-42.6,117.5-94.6,117.5l-136.6,0
	c-52,0-94.6-52.9-94.6-117.5V443.2C64.9,378.5,107.5,325.6,159.5,325.6z"/>
<path class="st14" d="M390.7,626.3v-85.5L290.6,436.4c10.3,11.1,16.1,26.4,14.3,45.1h11c2.5,0,4.5,2.1,4.5,4.7c0,2.6-2,4.7-4.5,4.7
	l-1.1,0c-0.7,9.5-8.5,18.2-21.1,25.1c-5.4,9.1-12.5,17.3-21.5,24.8c-10.3,7.6-20.4,12.7-31.3,18.3c-2.2,1.2-4.5,2.3-6.8,3.5
	l-8.6,4.5c-0.1,0-0.1,0.1-0.2,0.1v30.6v11v20c7,5.3,13.4,10.8,15.6,19c0.7,2.7,0.7,5.6,0.2,8.6c15,3.5,25.1,10.5,25.1,18.6
	c0,0.4,0,0.8-0.1,1.3h-35.7c-1.7,2-3.6,3.8-5.4,5.4c-1.8,1.5-3.6,2.9-5.3,4c-5.6,3.7-12.8,6.6-16,13.1c-0.6,1.1-1.8,4.6-2.9,4.4
	c-2.4-0.4-0.9-3.5,1-6.3c1.7-2.4,3.2-4.3,5.5-6.1c2.9-2.3,5.8-4.2,7.3-5.2c3.5-2.4,7.5-5.7,11-9.3h-54.2l51.7,53.9h68.1
	C346,730.1,390.7,683.4,390.7,626.3z"/>
<g>
	<path class="st15" d="M215.5,533.9h11.7v104.4c0,8.5,5.4,15.6,13,17.3c15.5,3.4,26.2,10.6,26.2,19.1c0,0.4,0,0.8-0.1,1.3h-91
		c-0.1-0.4-0.1-0.8-0.1-1.3c0-8.6,11.1-15.9,27-19.2c7.7-1.6,13.2-8.8,13.2-17.3L215.5,533.9z"/>
	<path class="st15" d="M212.7,440.5c-3.9,12-19,30.7-32.3,27.8c-12.5-2.7-13.4-26.2,16-41.8c5.3-1.7,10.5-3.7,15.7-5.7
		c45.2-18.2,99.8,9.8,90.7,65.9c-3.5,21.6-13.8,39-30.6,53.6c-12,9.1-23.6,14.7-36.5,21.9c-2.8,1.5-5.5,3-8.3,4.5
		c-6.4,4.4-9.8,5.6-14.3,12.2c-5.6,9-8.8,14.1-6.1,25.3c1.6,6.6,1.9,6.5,5.7,11.9c10.1,11,26,17,29.5,31.3
		c2.8,11.1-5.8,25.2-15.3,33.8c-1.7,1.5-3.4,2.9-5.1,4c-5.4,3.7-12.3,6.6-15.3,13.1c-0.5,1.1-1.7,4.6-2.8,4.4
		c-2.3-0.4-0.9-3.5,0.9-6.3c1.6-2.4,3.1-4.3,5.2-6.1c2.8-2.3,5.6-4.2,7-5.2c6.8-4.9,15.2-13,18.6-20.8c8.6-19.9-19.5-31.2-31.2-43.8
		c-8.4-9.1-13.3-19.8-10.1-33.1c5.5-22.6,35-34.9,52.8-46.8c4.3-3.3,8.7-6.7,13-10c14.8-12.6,24.7-21.9,27.9-40.2
		c1.2-7.1,1.2-12.3-0.1-19.4c-4.2-22.9-18.2-39.3-40.4-41.7c-4.2-0.5-8,0.1-12.2,0.7C227,431.3,220.6,433.6,212.7,440.5z"/>
	<path class="st15" d="M174.4,463.2c0.9-0.5,2-0.2,2.5,0.8c0.5,1,0.2,2.2-0.7,2.7c-1.4,0.8-1.4,1.8-1.4,3c0,1.6,0,3.4-1.3,5.5
		c-0.5,0.9-1.4,1.5-2.2,2c-0.7,0.4-1.5,0.7-2.1,0.9c-1,0.4-2-0.2-2.4-1.2c-0.3-1,0.1-2.2,1.1-2.6c0.5-0.2,1.1-0.4,1.6-0.7
		c0.4-0.2,0.7-0.5,0.9-0.7c0.7-1.1,0.7-2.2,0.7-3.2C171,467.4,171,465.2,174.4,463.2z"/>
	<path class="st15" d="M128.6,481.1h185.5c2.4,0,4.3,2.1,4.3,4.7c0,2.6-1.9,4.7-4.3,4.7l-1,0c-1.7,22.7-42.1,40.9-91.7,40.9
		c-49.6,0-90-18.2-91.7-40.9l-1,0c-2.4,0-4.3-2.1-4.3-4.7C124.3,483.2,126.2,481.1,128.6,481.1z"/>
	<rect x="215.5" y="549.1" class="st15" width="11.7" height="59.3"/>
</g>
<rect x="117.4" y="351.1" class="st16" width="215.3" height="357.8"/>
<text transform="matrix(0.8934 0 0 1 128.8184 390.332)" class="st17 st18 st19">PHARMACIE</text>
<text transform="matrix(0.8934 0 0 1 120.4063 699.9429)"><tspan x="0" y="0" class="st18 st20">   </tspan><tspan x="14.1" y="0" class="st21 st18 st20">st françois d’assise</tspan><tspan x="225.3" y="0" class="st18 st20"> </tspan></text>
</svg>
