<?xml version="1.0" encoding="utf-8"?>
<svg xmlns="http://www.w3.org/2000/svg" xmlns:xlink="http://www.w3.org/1999/xlink" version= "1.1" width="1608px" height="1609px" viewBox="-444 -92 1608 1609">
<g id="layer1">
<g style="fill:rgb(252,184,38); fill-opacity:1.0; stroke-linejoin: miter">
<path d="M-444.001,-93.950386C-444.518,-93.950386,-445.01385,-93.745,-445.37943,-93.379425C-445.745,-93.01385,-445.9504,-92.51801,-445.9504,-92.001L-445.9494,1517.0C-445.9494,1518.0767,-445.07663,1518.9493,-444.0,1518.9493L1164.001,1518.9503C1164.518,1518.9503,1165.0138,1518.745,1165.3794,1518.3794C1165.745,1518.0138,1165.9503,1517.518,1165.9503,1517.001L1165.9493,-92.0C1165.9493,-93.076614,1165.0767,-93.94939,1164.0,-93.94939L-444.001,-93.950386 Z"/>
</g>
<g style="fill:rgb(187,116,87); fill-opacity:1.0; stroke-linejoin: miter">
</g>
<g style="fill:rgb(0,0,0); fill-opacity:1.0; stroke-linejoin: miter">
<path d="M69.33817,733.46246L91.510605,579.58795Q96.87697,426.18222,115.94274,344.69696Q131.9523,274.17737,168.14757,225.79932Q173.19954,216.05453,207.28326,184.10835Q235.6557,160.48868,266.56393,148.93564Q324.52103,126.99782,386.37485,151.52036Q430.02478,169.7738,459.5351,202.47292Q475.2578,219.80861,484.51575,243.04071Q494.97137,274.607,495.4845,284.18988Q511.95758,365.28424,488.1089,753.9743L69.33817,733.46246"/>
</g>
<g style="fill:rgb(255,255,255); fill-opacity:1.0; stroke-linejoin: miter">
<path d="M171.04523,574.42926L142.37798,652.45215Q42.387108,672.0957,-2.9081497,718.56396Q-57.34809,772.72876,-79.15173,879.74426Q-88.56914,963.1515,-64.826164,1004.76685Q-49.804504,1049.9443,39.234306,1149.8125Q57.093353,1252.918,47.059235,1320.7786L593.0118,1320.7773Q590.4085,1291.0355,598.6241,1154.8254Q638.9411,1030.7649,635.49615,1003.4984Q637.1778,1003.4824,648.9045,1027.0963Q654.8626,1038.1627,694.1922,1123.0054Q645.73773,1224.1663,604.97577,1320.7773L761.02576,1320.7771Q788.70294,1245.5491,829.97797,1172.3374Q856.48395,1102.7413,820.5997,1027.1177Q721.70337,826.4317,634.48175,737.54297Q566.3971,674.93335,429.17773,628.34753L171.04523,574.42926 Z"/>
</g>
<g style="fill:rgb(113,207,235); fill-opacity:1.0; stroke-linejoin: miter">
<path d="M492.5623,1232.5652L258.93378,678.9371L178.47102,587.5663L194.97798,553.237L392.31522,563.4848L415.97687,597.7831L425.82605,721.49536Q477.52176,941.7496,487.2019,1024.4839Q499.76715,1112.1067,492.5623,1232.5652"/>
</g>
<g style="fill:rgb(187,116,87); fill-opacity:1.0; stroke-linejoin: miter">
<path d="M290.38284,649.95776L414.11664,896.461L393.98743,598.324Q438.91022,548.0286,447.91138,526.8799Q464.2087,496.47705,466.73422,458.29623Q466.66595,440.53418,464.87286,430.13885Q462.00748,410.30298,455.68085,383.70248Q430.4618,276.44214,421.99225,266.06277Q388.69058,203.84259,300.08362,212.90228Q237.53337,220.8914,208.06342,302.6469Q184.69055,376.41125,185.64629,440.88147Q184.27254,502.73712,214.9421,545.8019L205.29443,579.7038L290.38284,649.95776"/>
</g>
<g style="fill:rgb(66,66,66); fill-opacity:1.0; stroke-linejoin: miter">
<path d="M563.8608,813.73364L563.8607,813.7344L563.86066,813.7351L563.8608,813.73364"/>
</g>
<g style="fill:rgb(187,116,87); fill-opacity:1.0; stroke-linejoin: miter">
<path d="M100.38749,894.6879L97.93314,888.0769Q80.80403,844.6362,81.78287,819.67084Q83.576416,791.918,99.49933,792.86945Q113.35322,797.5651,128.71156,829.88007Q144.97954,863.2455,155.60101,903.34076Q165.82657,942.7224,161.20001,966.59863Q156.05058,994.4146,129.69647,1017.7243Q122.49742,1035.4492,121.34118,1044.7017Q119.69533,1060.364,120.71647,1064.6555Q124.852394,1092.1118,134.25119,1110.4231Q138.8097,1121.3591,169.78557,1181.3558Q175.37721,1192.7516,179.31905,1202.576Q187.51794,1222.8658,184.18198,1230.9952Q178.86128,1242.4117,155.88794,1235.1945Q124.96304,1223.7563,102.756996,1201.9084Q91.25039,1191.8135,72.59094,1164.5706Q43.245266,1114.8745,26.453634,1090.8334Q20.62092,1080.6168,20.387537,1078.838Q17.620964,1069.2545,18.270828,1067.2537Q18.365181,1063.312,19.38704,1059.1906Q19.04961,1057.5338,30.545523,1028.9749Q33.795208,1017.87506,33.526382,1015.66956Q34.169582,1013.4428,32.802048,1002.47375L28.072517,980.5625Q27.245049,976.16437,27.006353,971.73035Q26.445202,962.84216,29.98567,953.8244Q36.165134,936.46643,58.07822,920.1061Q65.714905,915.2167,72.59674,913.3183Q77.69514,911.4297,95.205284,909.7243Q96.85824,909.663,99.643,907.83344Q103.288765,905.69574,100.38749,894.6879"/>
</g>
<g style="fill:rgb(0,0,0); fill-opacity:1.0; stroke-linejoin: miter">
<path d="M141.09572,629.5128L141.09572,629.5128L173.1495,679.03143C174.13635,680.556,174.29005,682.47473,173.55843,684.1369C172.82678,685.79913,171.30803,686.98175,169.5172,687.2837L169.5172,687.2837C149.0901,690.7277,137.34831,693.6899,136.33757,701.3272L136.33757,701.3272C135.0117,711.346,147.68648,731.1996,163.12189,754.54034C164.76556,757.0258,164.08315,760.37317,161.59764,762.01685C159.11217,763.6605,155.7648,762.97815,154.1211,760.49255L154.1211,760.49255C140.25737,739.52844,123.632935,715.07715,125.639946,699.9115L125.639946,699.9115C127.96211,682.36444,152.18524,679.2627,167.72311,676.64294L164.09082,684.8952L132.03702,635.3766C130.41779,632.87506,131.13298,629.5346,133.63448,627.91534C136.13597,626.29614,139.47649,627.01135,141.09572,629.5128 Z"/>
</g>
<g style="fill:rgb(0,0,0); fill-opacity:1.0; stroke-linejoin: miter">
<path d="M171.81807,682.67365L171.81807,682.67365L171.81807,682.6739L167.37305,677.3628C186.19066,680.7303,206.81822,684.3027,221.74211,695.6656L221.74211,695.6656C236.68181,707.0404,245.37747,725.8152,253.40399,742.8869C254.67184,745.58356,253.51361,748.7974,250.81696,750.06525C248.12032,751.33307,244.90643,750.17487,243.63858,747.4783L243.63858,747.4783C235.3005,729.74384,227.63164,713.71246,215.20517,704.2511L215.20517,704.2511C202.76282,694.7777,185.0226,691.4836,165.47218,687.985C162.89984,687.52466,161.02716,685.28705,161.02716,682.6739L161.02716,682.6739L161.02716,682.67365C161.02716,679.69385,163.4428,677.2782,166.4226,677.2782C169.40244,677.2782,171.81807,679.69385,171.81807,682.67365 Z"/>
</g>
<g style="fill:rgb(0,0,0); fill-opacity:1.0; stroke-linejoin: miter">
<path d="M438.6839,631.21533L438.6839,631.21533L438.6839,631.21576L438.3754,629.4174L537.5822,910.042C538.5755,912.8514,537.1032,915.93414,534.29376,916.9274C531.4844,917.92053,528.4018,916.44824,527.4085,913.63873L527.4085,913.63873L428.2015,633.0141C427.99734,632.43646,427.89297,631.8283,427.89297,631.21576L427.89297,631.21576L427.89297,631.2152C427.89297,628.2355,430.30862,625.8198,433.28845,625.8198C436.26828,625.8198,438.6839,628.2355,438.6839,631.21533 Z"/>
</g>
<g style="fill:rgb(83,93,102); fill-opacity:1.0; stroke-linejoin: miter">
<path d="M255.58203,751.0267L255.58203,751.0267L255.582,751.02704L255.41559,749.8229L255.45073,749.9196L255.4507,749.9195C269.33337,788.1353,283.89484,827.8693,276.96576,854.12756L276.96576,854.12756C269.8855,880.95856,240.83058,893.0942,213.963,904.54724C212.48912,905.17554,210.78496,904.49,210.1567,903.0162C209.52843,901.54224,210.21391,899.83813,211.6878,899.20984L211.6878,899.20984C239.51155,887.34924,265.14804,876.17126,271.35562,852.64716L271.35562,852.64716C277.70334,828.5921,264.2069,791.01654,249.99722,751.90063L249.9972,751.9005L249.96205,751.8038C249.82216,751.41864,249.76543,751.00824,249.79564,750.5996L249.79564,750.5996L249.79565,750.59924C249.91368,749.00134,251.3047,747.80176,252.90257,747.9198C254.50044,748.0378,255.70007,749.42883,255.58203,751.0267 Z"/>
</g>
<g style="fill:rgb(83,93,102); fill-opacity:1.0; stroke-linejoin: miter">
<path d="M158.51329,754.2385L158.51329,754.2385L158.51326,754.23883L157.80963,752.12195C201.75697,802.68243,245.40543,852.88214,273.15475,875.57434L273.15475,875.57434C288.0846,887.7833,298.02243,891.68726,305.53632,892.2423L305.53632,892.2423C311.91885,892.71387,316.92844,890.82086,322.53232,888.66364C324.0276,888.088,325.7063,888.83356,326.2819,890.3288C326.85745,891.8241,326.11194,893.5028,324.6167,894.0784L324.6167,894.0784C319.07718,896.2108,312.94278,898.6075,305.10886,898.0287L305.10886,898.0287C295.8847,897.3472,284.8244,892.6124,269.48175,880.0659L269.48175,880.0659C241.24687,856.9766,197.18832,806.2707,153.43047,755.9283C152.92316,755.3446,152.66986,754.5826,152.72684,753.81134L152.72684,753.81134L152.72687,753.81104C152.84491,752.21313,154.23592,751.0134,155.83383,751.1316C157.43169,751.24963,158.63133,752.6407,158.51329,754.2385 Z"/>
</g>
<g style="fill:rgb(0,0,0); fill-opacity:1.0; stroke-linejoin: miter">
<path d="M220.10835,902.3431L219.89406,903.8537Q218.829,908.3881,215.10263,910.8786Q211.352,913.3651,206.58298,912.4905Q202.04857,911.4255,199.55803,907.69904Q197.07153,903.9484,197.94618,899.1793Q199.01123,894.6449,202.73763,892.1544Q206.48822,889.6679,211.25728,890.5425Q215.79167,891.60754,218.28221,895.3339Q219.07944,896.53784,219.55084,897.92303L219.92842,899.33923Q220.21835,900.7935,220.10835,902.3431"/>
</g>
<g style="fill:rgb(0,0,0); fill-opacity:1.0; stroke-linejoin: miter">
<path d="M338.47382,889.2032L338.25952,890.71375Q338.02286,891.7214,337.65472,892.62805Q337.55283,893.14453,336.2547,895.12115Q335.12424,896.6317,333.46808,897.73865Q331.34042,898.9749,330.85455,899.02295Q329.94565,899.3265,328.98645,899.4641Q327.06805,899.7393,324.9485,899.35065Q323.94086,899.11395,323.03412,898.74585Q322.51767,898.6439,320.54102,897.34576Q319.0304,896.21533,317.92352,894.5592Q315.7133,891.2253,316.15878,887.08673Q316.4243,884.949,317.3174,883.24365Q318.51694,881.1914,318.91455,880.902Q319.5455,880.19714,320.30786,879.59326Q320.64206,879.19476,322.8203,878.07544Q323.70407,877.6888,324.63815,877.4682Q326.50626,877.027,328.5755,877.24976Q330.71323,877.5152,332.41858,878.4083L333.24957,878.87506Q334.05536,879.3746,334.7602,880.00555Q335.46506,880.6365,336.06897,881.3988Q337.29327,882.9427,337.91632,884.7832Q338.6109,886.7076,338.47382,889.2032"/>
</g>
<g style="fill:rgb(60,70,79); fill-opacity:1.0; stroke-linejoin: miter">
<path d="M571.6558,938.49603L570.13586,942.60284Q564.3902,954.67346,552.423,959.3922Q540.3903,964.08496,527.5459,958.73065Q515.4754,952.9848,510.75668,941.01776Q509.25287,937.1559,508.7733,932.984L508.57565,928.78235Q508.6472,924.527,509.89832,920.24756Q514.10675,907.22375,525.3945,901.08527Q536.68207,894.9466,549.9014,898.493Q562.9252,902.7014,569.0636,913.989Q575.20197,925.27673,571.6558,938.49603"/>
</g>
<g style="fill:rgb(0,0,0); fill-opacity:1.0; stroke-linejoin: miter">
<path d="M563.3673,937.8971L562.2784,940.83923Q558.1621,949.48663,549.58887,952.8672Q540.96857,956.22906,531.76666,952.39325Q523.11926,948.2769,519.7387,939.7035Q518.66144,936.93695,518.31793,933.9481L518.17633,930.93805Q518.2275,927.88947,519.12384,924.8237Q522.13885,915.49335,530.2254,911.09576Q538.31195,906.69806,547.7823,909.23865Q557.1127,912.25354,561.5102,920.3401Q565.9079,928.42664,563.3673,937.8971"/>
</g>
<g style="fill:rgb(255,255,255); fill-opacity:1.0; stroke-linejoin: miter">
<path d="M280.0199,513.7046L285.06168,517.5165Q307.76233,534.75464,319.82843,540.58435Q324.67303,543.041,329.40494,544.7234L334.1024,546.1692Q339.02582,547.41223,342.77,547.5737L347.58185,547.52875L352.30838,546.8978L356.95743,545.7342Q361.56766,544.30426,366.05392,542.0221Q377.30048,536.5298,396.58914,520.0813L280.0199,513.7046"/>
</g>
<g style="fill:rgb(0,0,0); fill-opacity:0.15294118; stroke-linejoin: miter">
<path d="M312.5314,464.88687L335.71783,480.35568L358.90427,495.82452Q379.36435,481.20862,399.8244,466.59274Q380.2203,473.65085,360.61618,480.70898Q336.5738,472.7979,312.5314,464.88687"/>
</g>
<g style="fill:rgb(0,0,0); fill-opacity:0.15294118; stroke-linejoin: miter">
<path d="M212.88591,545.3695L219.58183,552.60614Q243.0024,577.8018,252.84892,586.97394Q269.2517,602.19165,272.42053,604.2831Q290.13678,619.5129,313.30676,626.29456Q359.83536,637.3148,392.51526,600.3994L344.07016,702.17255L212.88591,545.3695"/>
</g>
<g style="fill:rgb(255,255,255); fill-opacity:1.0; stroke-linejoin: miter">
<path d="M257.08954,386.8887L259.4645,386.399Q270.1568,384.17612,275.88318,383.7725Q278.18085,383.58337,280.43433,383.566L282.67432,383.60114Q285.53238,383.72516,287.69858,384.09253Q290.0882,384.48608,292.40445,385.16486L294.70575,385.90195Q296.99033,386.70386,299.2216,387.7132Q304.81308,390.1847,314.467,396.2305Q307.32193,397.3485,304.2482,397.66843Q299.12363,398.17838,298.0906,398.16888Q291.6402,398.46503,286.21518,397.57178Q283.8242,397.17908,281.41653,396.55673Q280.22086,396.35776,274.16354,394.27737Q268.09906,392.09784,257.08954,386.8887"/>
</g>
<g style="fill:rgb(0,0,0); fill-opacity:1.0; stroke-linejoin: miter">
<path d="M296.6677,392.34805L296.43332,393.38766Q295.3817,396.48035,292.21252,397.9714Q289.0235,399.4581,285.12247,398.5329Q281.42224,397.4904,279.5097,394.72644Q278.8979,393.83392,278.56183,392.83658L278.30432,391.8238Q278.1206,390.79022,278.27045,389.71658Q278.84015,386.43744,281.7485,384.62195Q284.6569,382.80643,288.5776,383.28247Q292.47458,383.92465,294.75735,386.4827Q297.04013,389.04077,296.6677,392.34805"/>
</g>
<g style="fill:rgb(0,0,0); fill-opacity:1.0; stroke-linejoin: miter">
<path d="M248.59387,334.42566L248.59384,334.42584Q266.425,334.2088,275.4786,334.7274Q279.12003,334.91986,282.5621,335.26175L285.94196,335.6503Q289.25122,336.07785,292.3445,336.72296Q295.58035,337.41437,298.2563,338.24704Q299.76248,338.57208,306.0165,341.1545Q312.15387,343.82434,321.6885,349.764L248.59387,334.42566"/>
</g>
<g style="fill:rgb(0,0,0); fill-opacity:1.0; stroke-linejoin: miter">
<path d="M312.6042,308.24826L312.60416,308.24835L312.60416,308.24844L312.6042,308.24826"/>
</g>
<g style="fill:rgb(255,255,255); fill-opacity:1.0; stroke-linejoin: miter">
<path d="M445.11426,403.81174L442.97394,402.67184Q433.3432,397.52255,427.96332,395.51968Q425.81238,394.68997,423.65533,394.0375L421.49646,393.43924Q418.7195,392.75186,416.53766,392.49313Q414.1341,392.19647,411.72046,392.19412L409.3047,392.25198Q406.88666,392.37674,404.4613,392.71558Q398.3996,393.50903,387.43216,396.58545Q393.9715,399.67395,396.8301,400.84808Q401.60257,402.7832,402.5963,403.06555Q408.70108,405.16962,414.1577,405.84326Q416.56238,406.1411,419.0478,406.22333Q420.25104,406.3698,426.6492,406.08295Q433.08224,405.703,445.11426,403.81174"/>
</g>
<g style="fill:rgb(0,0,0); fill-opacity:1.0; stroke-linejoin: miter">
<path d="M405.6037,397.8827L405.53525,398.94617Q405.67157,402.2099,408.29126,404.53455Q410.9313,406.8606,414.93488,407.0736Q418.77887,407.11743,421.39355,405.00543Q422.23233,404.32178,422.83612,403.45972L423.3689,402.5608Q423.8368,401.62103,423.99597,400.54874Q424.37463,397.2421,422.09665,394.67978Q419.81866,392.11746,415.9229,391.46793Q412.00305,390.98453,409.0913,392.7946Q406.17953,394.60468,405.6037,397.8827"/>
</g>
<g style="fill:rgb(0,0,0); fill-opacity:1.0; stroke-linejoin: miter">
<path d="M468.06668,355.8771L468.06668,355.8773Q451.0212,350.63815,442.1891,348.58127Q438.6413,347.73856,435.2426,347.09537L431.89044,346.51456Q428.595,345.99106,425.44537,345.7372Q422.14594,345.48758,419.34378,345.5314Q417.8071,345.4183,411.07855,346.13126Q404.43726,346.96103,393.6142,349.96927L468.06668,355.8771"/>
</g>
<g style="fill:rgb(0,0,0); fill-opacity:1.0; stroke-linejoin: miter">
<path d="M526.6518,494.0601L526.65204,494.06058L526.6524,494.06104L526.6518,494.0601"/>
</g>
<g style="fill:rgb(75,45,35); fill-opacity:1.0; stroke-linejoin: miter">
<path d="M-95.74313,1286.2329L421.8409,1286.2334L939.425,1286.2339Q939.425,1401.5778,939.425,1516.9216Q421.8409,1516.9221,-95.74313,1516.9226Q-95.74313,1401.5778,-95.74313,1286.2329"/>
</g>
</g>
</svg>